HIERARCHY
ROOT Hips
{
	OFFSET 0.000000 89.005402 0.000000
	CHANNELS 6 Xposition Yposition Zposition Xrotation Yrotation Zrotation
	JOINT Spine
	{
		OFFSET 0.116900 10.681000 0.373400
		CHANNELS 3 Xrotation Yrotation Zrotation
		JOINT Spine1
		{
			OFFSET 0.000000 13.840401 0.053500
			CHANNELS 3 Xrotation Yrotation Zrotation
			JOINT Spine2
			{
				OFFSET 0.000000 14.712700 -0.366200
				CHANNELS 3 Xrotation Yrotation Zrotation
				JOINT Neck
				{
					OFFSET 0.000000 35.415497 -3.314200
					CHANNELS 3 Xrotation Yrotation Zrotation
					JOINT Head
					{
						OFFSET 0.000000 16.899200 1.218300
						CHANNELS 3 Xrotation Yrotation Zrotation
						JOINT HeadTop_End
						{
							OFFSET 0.000000 22.206207 2.192500
							CHANNELS 3 Xrotation Yrotation Zrotation
							End Site
							{
								OFFSET 0.000000 22.314178 0.000000
							}
						}
					}
				}
				JOINT LeftShoulder
				{
					OFFSET 12.896400 26.716293 -4.548400
					CHANNELS 3 Xrotation Yrotation Zrotation
					JOINT LeftArm
					{
						OFFSET 19.027000 -4.857010 -1.718400
						CHANNELS 3 Xrotation Yrotation Zrotation
						JOINT LeftForeArm
						{
							OFFSET 24.179897 0.000000 0.000000
							CHANNELS 3 Xrotation Yrotation Zrotation
							JOINT LeftHand
							{
								OFFSET 27.156403 0.000000 0.000000
								CHANNELS 3 Xrotation Yrotation Zrotation
								JOINT LeftHandIndex1
								{
									OFFSET 16.441200 0.000000 0.000000
									CHANNELS 3 Xrotation Yrotation Zrotation
									JOINT LeftHandIndex2
									{
										OFFSET 4.821899 0.000000 0.000000
										CHANNELS 3 Xrotation Yrotation Zrotation
										JOINT LeftHandIndex3
										{
											OFFSET 6.386497 0.000000 0.000000
											CHANNELS 3 Xrotation Yrotation Zrotation
											JOINT LeftHandIndex4
											{
												OFFSET 5.188988 0.000000 0.000000
												CHANNELS 3 Xrotation Yrotation Zrotation
												End Site
												{
													OFFSET -0.178703 5.185913 0.000177
												}
											}
										}
									}
								}
								JOINT LeftHandThumb1
								{
									OFFSET 6.534897 -5.032593 5.900300
									CHANNELS 3 Xrotation Yrotation Zrotation
									JOINT LeftHandThumb2
									{
										OFFSET 3.818176 -2.204422 2.204423
										CHANNELS 3 Xrotation Yrotation Zrotation
										JOINT LeftHandThumb3
										{
											OFFSET 3.252098 -1.877594 1.877601
											CHANNELS 3 Xrotation Yrotation Zrotation
											JOINT LeftHandThumb4
											{
												OFFSET 5.251778 -3.032120 3.032117
												CHANNELS 3 Xrotation Yrotation Zrotation
												End Site
												{
													OFFSET 0.000023 6.780014 0.000000
												}
											}
										}
									}
								}
							}
						}
					}
				}
				JOINT RightShoulder
				{
					OFFSET -12.896300 26.716293 -4.548400
					CHANNELS 3 Xrotation Yrotation Zrotation
					JOINT RightArm
					{
						OFFSET -19.027000 -4.857010 -1.718400
						CHANNELS 3 Xrotation Yrotation Zrotation
						JOINT RightForeArm
						{
							OFFSET -24.179897 0.000000 0.000000
							CHANNELS 3 Xrotation Yrotation Zrotation
							JOINT RightHand
							{
								OFFSET -27.156403 0.000000 0.000000
								CHANNELS 3 Xrotation Yrotation Zrotation
								JOINT RightHandThumb1
								{
									OFFSET -6.591202 -4.852203 5.988100
									CHANNELS 3 Xrotation Yrotation Zrotation
									JOINT RightHandThumb2
									{
										OFFSET -3.818176 -2.204422 2.204423
										CHANNELS 3 Xrotation Yrotation Zrotation
										JOINT RightHandThumb3
										{
											OFFSET -3.252098 -1.877594 1.877601
											CHANNELS 3 Xrotation Yrotation Zrotation
											JOINT RightHandThumb4
											{
												OFFSET -5.251778 -3.032120 3.032117
												CHANNELS 3 Xrotation Yrotation Zrotation
												End Site
												{
													OFFSET -0.000023 6.780014 0.000000
												}
											}
										}
									}
								}
								JOINT RightHandIndex1
								{
									OFFSET -16.029404 0.000000 0.000000
									CHANNELS 3 Xrotation Yrotation Zrotation
									JOINT RightHandIndex2
									{
										OFFSET -5.213303 0.000000 0.000000
										CHANNELS 3 Xrotation Yrotation Zrotation
										JOINT RightHandIndex3
										{
											OFFSET -6.386528 0.000000 0.000000
											CHANNELS 3 Xrotation Yrotation Zrotation
											JOINT RightHandIndex4
											{
												OFFSET -5.189026 0.000000 0.000000
												CHANNELS 3 Xrotation Yrotation Zrotation
												End Site
												{
													OFFSET 0.236702 5.183624 0.001972
												}
											}
										}
									}
								}
							}
						}
					}
				}
			}
		}
	}
	JOINT LeftUpLeg
	{
		OFFSET 14.073000 -7.904099 -1.463000
		CHANNELS 3 Xrotation Yrotation Zrotation
		JOINT LeftLeg
		{
			OFFSET -0.109806 -34.073280 4.093200
			CHANNELS 3 Xrotation Yrotation Zrotation
			JOINT LeftFoot
			{
				OFFSET 0.109806 -29.899420 -6.319000
				CHANNELS 3 Xrotation Yrotation Zrotation
				JOINT LeftToeBase
				{
					OFFSET 1.551100 -14.988700 20.535801
					CHANNELS 3 Xrotation Yrotation Zrotation
					JOINT LeftToe_End
					{
						OFFSET 0.221200 0.570800 13.248301
						CHANNELS 3 Xrotation Yrotation Zrotation
						End Site
						{
							OFFSET 0.000000 13.262435 0.000000
						}
					}
				}
			}
		}
	}
	JOINT RightUpLeg
	{
		OFFSET -13.839300 -7.904099 -1.463000
		CHANNELS 3 Xrotation Yrotation Zrotation
		JOINT RightLeg
		{
			OFFSET 0.109694 -34.073219 4.093300
			CHANNELS 3 Xrotation Yrotation Zrotation
			JOINT RightFoot
			{
				OFFSET -0.109694 -29.899384 -6.319200
				CHANNELS 3 Xrotation Yrotation Zrotation
				JOINT RightToeBase
				{
					OFFSET -1.551100 -14.988700 20.535801
					CHANNELS 3 Xrotation Yrotation Zrotation
					JOINT RightToe_End
					{
						OFFSET -0.221200 0.570900 13.248299
						CHANNELS 3 Xrotation Yrotation Zrotation
						End Site
						{
							OFFSET 0.000000 13.262440 0.000000
						}
					}
				}
			}
		}
	}
}
MOTION
Frames: 9
Frame Time: 0.033333
2.472100 86.202789 1.684583 -1.756787 1.754144 -4.160923 0.907163 -0.026813 2.619407 1.814338 -0.007785 4.885867 1.814340 -0.007784 4.885869 23.037629 -1.841252 -2.213237 23.837526 -10.613508 -1.439066 -0.000002 0.000000 -0.000001 3.792859 -15.926326 -3.709900 5.825568 2.564330 -85.276387 -0.140349 -19.395478 -0.046633 -16.461676 10.010879 -2.202245 0.345834 4.742953 -8.491919 0.371704 2.692136 -21.195815 0.033687 0.772213 -10.781394 -0.000001 -0.000000 -0.000000 12.969118 -2.412905 19.606674 1.358230 32.830745 -3.242056 0.962811 9.482672 2.469825 0.000000 0.000002 0.000000 4.407060 6.194420 4.895136 12.349217 21.504145 53.424657 0.644888 107.591551 -0.615447 -82.169355 -3.984124 10.391126 22.047506 24.127848 -16.219430 0.691621 -59.152642 -5.966285 1.447719 12.259553 -0.161768 -0.000002 0.000001 -0.000000 0.973806 -2.108323 -15.472670 4.830415 -5.995186 85.623607 -0.161184 -0.727319 20.672802 0.000001 -0.000003 0.000001 -15.802718 11.953829 15.268850 22.964346 8.898465 1.478498 -5.142102 3.430403 -9.361857 -0.594174 -0.000003 0.000001 0.000000 0.000000 0.000000 3.329805 -3.626115 9.817367 8.318871 -5.733364 1.764842 -10.147661 0.832145 -6.264544 -0.423986 0.000005 -0.000001 -0.000000 -0.000001 -0.000000 
2.470075 86.212219 1.698160 -1.756544 1.775894 -4.149833 0.905690 -0.037851 2.622453 1.811787 -0.029503 4.885610 1.811787 -0.029502 4.885611 23.034586 -1.842053 -2.226951 23.825078 -10.571587 -1.497947 0.000005 0.000000 -0.000000 3.790114 -15.889228 -3.730673 5.712735 2.596489 -85.195914 -0.138805 -19.211389 -0.045691 -16.478065 9.927186 -2.079767 0.339715 4.700144 -8.006933 0.355902 2.650908 -20.710681 0.027348 0.728326 -10.296978 0.000001 0.000000 0.000002 12.932667 -2.357083 19.533354 1.358230 32.830745 -3.242056 0.962809 9.482671 2.469825 -0.000001 -0.000002 0.000002 4.406398 6.157693 4.876798 12.422428 21.507371 53.415645 0.642168 107.745046 -0.612359 -82.169293 -4.235842 10.156636 22.799144 23.402014 -16.620866 0.294072 -61.400491 -7.306619 1.407512 12.583425 -0.124158 -0.000002 0.000003 0.000002 0.973825 -2.108254 -15.472988 4.830427 -5.995187 85.623613 -0.161148 -0.727350 20.673190 -0.000004 0.000000 -0.000002 -15.765514 11.955370 15.249263 22.902401 8.897470 1.479460 -5.113788 3.415639 -9.359611 -0.599449 -0.000017 -0.000000 -0.000000 -0.000002 -0.000000 3.374320 -3.617331 9.820047 8.247098 -5.750660 1.750349 -10.123836 0.831956 -6.260114 -0.388150 -0.000002 -0.000001 -0.000000 0.000000 -0.000000 
2.470671 86.217461 1.711018 -1.755824 1.772482 -4.145398 0.904563 -0.046712 2.624098 1.809846 -0.046964 4.885056 1.809846 -0.046964 4.885054 23.032161 -1.842533 -2.245503 23.815973 -10.573542 -1.553918 -0.000001 0.000000 0.000000 3.789138 -15.839979 -3.748149 5.605129 2.606190 -85.116424 -0.137128 -19.052126 -0.044760 -16.498518 9.857338 -1.937796 0.334851 4.664116 -7.599840 0.342908 2.616193 -20.303451 0.022304 0.691439 -9.890260 0.000001 -0.000001 0.000003 12.906148 -2.289756 19.442702 1.358234 32.830749 -3.242059 0.962810 9.482673 2.469825 0.000000 -0.000000 0.000000 4.406607 6.193365 4.791181 12.458400 21.867788 53.350976 0.644088 107.535584 -0.614877 -82.004863 -3.744857 10.210260 23.608597 21.967046 -17.520772 -0.114898 -63.151861 -8.531827 1.314527 12.259229 -0.069638 -0.000002 0.000002 -0.000001 0.973875 -2.108139 -15.473314 4.830420 -5.995178 85.623607 -0.161163 -0.727387 20.673535 -0.000003 -0.000002 -0.000001 -15.739006 11.963692 15.239945 22.870952 8.896360 1.480705 -5.106269 3.413947 -9.360761 -0.602600 -0.000003 0.000002 0.000000 -0.000000 -0.000000 3.399611 -3.613561 9.816089 8.210669 -5.741275 1.748785 -10.115477 0.832920 -6.260162 -0.368160 0.000006 -0.000001 -0.000000 -0.000000 0.000000 
2.472478 86.216553 1.722943 -1.754672 1.747680 -4.143458 0.904045 -0.046904 2.624176 1.808812 -0.047182 4.883794 1.808812 -0.047182 4.883794 23.029419 -1.843134 -2.258167 23.811274 -10.613420 -1.572198 0.000002 -0.000000 0.000000 3.787847 -15.798185 -3.765389 5.490722 2.602709 -85.031573 -0.135357 -18.903868 -0.043839 -16.499854 9.801775 -1.794050 0.331178 4.635589 -7.278422 0.332822 2.588726 -19.981975 0.018513 0.662295 -9.569197 -0.000000 0.000001 0.000001 12.889838 -2.209420 19.333066 1.358232 32.830749 -3.242058 0.962810 9.482670 2.469825 -0.000000 -0.000000 0.000001 4.404689 6.271916 4.726641 12.452155 22.306667 53.254527 0.648708 107.118062 -0.620666 -81.767528 -2.856894 10.461131 24.409288 20.136094 -18.600763 -0.497775 -64.459548 -9.611362 1.189413 11.486047 -0.013421 -0.000004 0.000002 -0.000001 0.973907 -2.108066 -15.473618 4.830425 -5.995193 85.623607 -0.161161 -0.727417 20.673881 -0.000001 -0.000002 0.000000 -15.714751 11.976259 15.240158 22.870221 8.891252 1.482287 -5.121916 3.430075 -9.372323 -0.605135 -0.000012 -0.000000 0.000000 -0.000000 -0.000000 3.400136 -3.616473 9.807862 8.222810 -5.707035 1.760474 -10.129288 0.836322 -6.270550 -0.362920 0.000003 -0.000001 -0.000000 0.000000 0.000000 
2.476186 86.212234 1.734373 -1.753140 1.708218 -4.144886 0.904048 -0.036889 2.623069 1.808450 -0.027059 4.881218 1.808450 -0.027058 4.881217 23.025548 -1.843840 -2.265929 23.806718 -10.674591 -1.572568 -0.000003 -0.000000 -0.000000 3.780381 -15.786941 -3.798865 5.397388 2.604188 -84.931640 -0.133536 -18.801189 -0.043029 -16.484030 9.778130 -1.649168 0.331598 4.614932 -7.050893 0.325766 2.569215 -19.754044 0.015920 0.641618 -9.341547 -0.000000 -0.000000 0.000002 12.884019 -2.114546 19.202874 1.358233 32.830749 -3.242055 0.962810 9.482671 2.469825 0.000002 0.000006 -0.000002 4.403972 6.323514 4.686702 12.321376 22.560671 53.280909 0.655563 106.656703 -0.628745 -81.373248 -2.089191 10.692571 25.147531 18.231636 -19.560979 -0.826338 -65.375026 -10.526317 1.052223 10.463255 0.028963 -0.000000 0.000003 0.000001 0.973941 -2.107994 -15.473913 4.830415 -5.995183 85.623620 -0.161158 -0.727447 20.674204 0.000003 0.000004 -0.000000 -15.704328 11.976935 15.244904 22.887774 8.884030 1.485124 -5.137412 3.476148 -9.386810 -0.608315 -0.000002 -0.000003 -0.000000 0.000003 0.000000 3.402232 -3.631353 9.790151 8.247823 -5.648835 1.783115 -10.146559 0.838861 -6.281932 -0.365610 0.000003 0.000001 -0.000000 -0.000000 -0.000000 
2.478507 86.203011 1.744314 -1.749356 1.676296 -4.158308 0.903910 -0.026527 2.621663 1.807799 -0.006269 4.877960 1.807799 -0.006268 4.877961 23.021819 -1.844611 -2.269875 23.805479 -10.712531 -1.568783 -0.000002 0.000000 -0.000000 3.773606 -15.795026 -3.825957 5.329087 2.626783 -84.840792 -0.131810 -18.750391 -0.042401 -16.459503 9.785665 -1.502092 0.331826 4.603127 -6.921865 0.321798 2.558141 -19.624786 0.014489 0.629890 -9.212436 -0.000001 0.000000 0.000000 12.890589 -2.003491 19.049539 1.358230 32.830749 -3.242054 0.962808 9.482669 2.469823 -0.000000 0.000002 -0.000000 4.405333 6.335002 4.664555 12.050234 22.679997 53.447019 0.666837 106.116715 -0.641284 -80.926595 -1.469051 11.035463 25.781975 16.582412 -20.116148 -1.085231 -65.948345 -11.272576 0.922725 9.391059 0.046895 -0.000001 -0.000002 -0.000001 0.973963 -2.107933 -15.474202 4.830425 -5.995204 85.623600 -0.161147 -0.727466 20.674551 0.000003 -0.000008 0.000000 -15.705332 11.972749 15.262300 22.935562 8.872635 1.493734 -5.167322 3.521383 -9.410069 -0.612065 0.000005 0.000000 0.000000 -0.000000 -0.000000 3.410192 -3.644251 9.788122 8.269385 -5.593265 1.811368 -10.164501 0.840920 -6.301091 -0.370108 -0.000001 0.000001 0.000000 0.000000 -0.000000 
2.478364 86.197929 1.757678 -1.745295 1.672519 -4.183109 0.902377 -0.024068 2.621458 1.804640 -0.001234 4.874318 1.804640 -0.001234 4.874318 23.020374 -1.845478 -2.272561 23.807005 -10.713986 -1.559410 0.000001 -0.000000 -0.000000 3.768102 -15.807151 -3.847958 5.280630 2.648438 -84.757655 -0.130126 -18.714109 -0.041786 -16.458954 9.802633 -1.356946 0.331918 4.598969 -6.877733 0.320446 2.554344 -19.580527 0.014007 0.625876 -9.168282 0.000000 0.000001 -0.000001 12.918657 -1.875083 18.867254 1.358229 32.830745 -3.242060 0.962808 9.482671 2.469826 0.000000 -0.000002 0.000000 4.403593 6.330688 4.681510 11.766930 22.595838 53.643462 0.680982 105.660322 -0.656315 -80.651762 -1.299414 11.434792 26.280283 15.519585 -19.991047 -1.273224 -66.228308 -11.861433 0.821152 8.470458 0.036458 0.000000 0.000001 -0.000002 0.973999 -2.107851 -15.474471 4.830424 -5.995198 85.623641 -0.161152 -0.727490 20.674810 0.000002 -0.000000 -0.000000 -15.722943 11.963312 15.287866 22.974840 8.857517 1.511596 -5.185483 3.540553 -9.431548 -0.615877 -0.000003 -0.000001 0.000000 -0.000000 -0.000000 3.433601 -3.642495 9.806693 8.243964 -5.574858 1.832529 -10.161747 0.843102 -6.317418 -0.370301 -0.000000 0.000001 -0.000000 -0.000000 0.000000 
2.474006 86.198593 1.772100 -1.737496 1.682653 -4.207654 0.899030 -0.025190 2.621652 1.797985 -0.003345 4.869159 1.797985 -0.003345 4.869159 23.021494 -1.846512 -2.274427 23.810121 -10.704538 -1.543368 -0.000001 0.000000 0.000000 3.764416 -15.822505 -3.863044 5.229089 2.660884 -84.677024 -0.128412 -18.642161 -0.041063 -16.471817 9.809548 -1.233565 0.331878 4.601756 -6.910588 0.321448 2.557168 -19.613418 0.014365 0.628855 -9.201097 -0.000000 -0.000000 -0.000001 12.968321 -1.730683 18.657358 1.358231 32.830745 -3.242060 0.962810 9.482674 2.469826 -0.000001 -0.000003 0.000000 4.402457 6.263745 4.730791 11.629345 22.349726 53.765828 0.684295 105.595619 -0.659732 -80.643880 -1.591328 11.598045 26.550707 15.376943 -18.848904 -1.333334 -66.065442 -12.191542 0.601270 7.854003 0.143012 -0.000001 -0.000001 -0.000004 0.974029 -2.107810 -15.474726 4.830411 -5.995193 85.623641 -0.161123 -0.727523 20.675080 0.000000 -0.000001 0.000001 -15.736756 11.951334 15.313518 22.979053 8.846259 1.529802 -5.175677 3.543602 -9.452220 -0.619837 0.000002 0.000001 0.000000 0.000002 0.000000 3.464900 -3.616363 9.840351 8.176685 -5.606857 1.830210 -10.139240 0.843697 -6.319324 -0.356725 0.000003 -0.000002 0.000000 0.000000 -0.000000 
2.470807 86.205643 1.784773 -1.722557 1.689587 -4.206298 0.894723 -0.028848 2.617508 1.789497 -0.010597 4.854527 1.789497 -0.010597 4.854528 23.024025 -1.847458 -2.276150 23.826411 -10.686981 -1.552807 -0.000002 -0.000000 -0.000000 3.767305 -15.825220 -3.858040 5.119955 2.688480 -84.618660 -0.126545 -18.458596 -0.040068 -16.494449 9.768571 -1.134154 0.331696 4.610970 -7.014740 0.324647 2.566107 -19.717744 0.015516 0.638327 -9.305289 0.000001 0.000001 -0.000000 13.037991 -1.571973 18.422171 1.358231 32.830749 -3.242059 0.962810 9.482672 2.469823 -0.000000 -0.000001 0.000001 4.403121 6.172064 4.760451 11.707007 22.149195 53.733412 0.672377 105.908565 -0.647281 -80.936587 -1.901578 11.473142 26.638624 15.842156 -16.947511 -1.224505 -65.352616 -12.187947 0.266974 7.305819 0.345194 0.000002 -0.000002 -0.000000 0.974043 -2.107763 -15.474972 4.830411 -5.995187 85.623648 -0.161131 -0.727552 20.675328 0.000002 0.000002 -0.000002 -15.717044 11.948671 15.304820 22.927383 8.842024 1.535267 -5.145001 3.541842 -9.458413 -0.624606 -0.000007 -0.000001 0.000000 -0.000002 -0.000000 3.492849 -3.594034 9.851630 8.101705 -5.626339 1.815093 -10.107995 0.842615 -6.314603 -0.334247 0.000008 0.000001 0.000000 0.000000 -0.000000 
